<svg width="1920" height="960" viewBox="0 0 1920 960" fill="none" xmlns="http://www.w3.org/2000/svg">
<path d="M2355.26 517.939H477.542" stroke="#D4D4D4" stroke-opacity="0.2" stroke-width="4" stroke-miterlimit="10" stroke-linecap="round"/>
<path d="M2321.2 466.195L477.677 517.805" stroke="#D5CFCD" stroke-opacity="0.2" stroke-width="4" stroke-miterlimit="10" stroke-linecap="round"/>
<path d="M2287.16 414.47L477.811 517.651" stroke="#D7CAC6" stroke-opacity="0.2" stroke-width="4" stroke-miterlimit="10" stroke-linecap="round"/>
<path d="M2253.1 362.765L477.946 517.498" stroke="#D8C5C0" stroke-opacity="0.2" stroke-width="4" stroke-miterlimit="10" stroke-linecap="round"/>
<path d="M2219.08 311.098L478.061 517.325" stroke="#D9C0B9" stroke-opacity="0.2" stroke-width="4" stroke-miterlimit="10" stroke-linecap="round"/>
<path d="M2185.09 259.43L478.157 517.133" stroke="#DBBBB2" stroke-opacity="0.2" stroke-width="4" stroke-miterlimit="10" stroke-linecap="round"/>
<path d="M2151.11 207.802L478.272 516.922" stroke="#DCB6AB" stroke-opacity="0.2" stroke-width="4" stroke-miterlimit="10" stroke-linecap="round"/>
<path d="M2117.09 156.211L478.368 516.71" stroke="#DEB1A5" stroke-opacity="0.2" stroke-width="4" stroke-miterlimit="10" stroke-linecap="round"/>
<path d="M2083.14 104.64L478.445 516.48" stroke="#DFAB9E" stroke-opacity="0.2" stroke-width="4" stroke-miterlimit="10" stroke-linecap="round"/>
<path d="M2049.2 53.088L478.541 516.23" stroke="#E0A697" stroke-opacity="0.2" stroke-width="4" stroke-miterlimit="10" stroke-linecap="round"/>
<path d="M2015.31 1.55518L478.579 516" stroke="#E2A190" stroke-opacity="0.2" stroke-width="4" stroke-miterlimit="10" stroke-linecap="round"/>
<path d="M1981.42 -49.9392L478.637 515.731" stroke="#E39C89" stroke-opacity="0.2" stroke-width="4" stroke-miterlimit="10" stroke-linecap="round"/>
<path d="M1947.53 -101.414L478.694 515.443" stroke="#E49783" stroke-opacity="0.2" stroke-width="4" stroke-miterlimit="10" stroke-linecap="round"/>
<path d="M1913.72 -152.89L478.694 515.174" stroke="#E6927C" stroke-opacity="0.2" stroke-width="4" stroke-miterlimit="10" stroke-linecap="round"/>
<path d="M1879.91 -204.346L478.714 514.886" stroke="#E78D75" stroke-opacity="0.2" stroke-width="4" stroke-miterlimit="10" stroke-linecap="round"/>
<path d="M1846.12 -255.763L478.714 514.579" stroke="#E8886E" stroke-opacity="0.2" stroke-width="4" stroke-miterlimit="10" stroke-linecap="round"/>
<path d="M1812.31 -307.162L478.714 514.272" stroke="#EA8367" stroke-opacity="0.2" stroke-width="4" stroke-miterlimit="10" stroke-linecap="round"/>
<path d="M1778.61 -358.598L478.675 513.965" stroke="#EB7E61" stroke-opacity="0.2" stroke-width="4" stroke-miterlimit="10" stroke-linecap="round"/>
<path d="M1744.92 -409.997L478.637 513.658" stroke="#EC795A" stroke-opacity="0.2" stroke-width="4" stroke-miterlimit="10" stroke-linecap="round"/>
<path d="M1711.33 -461.472L478.521 513.37" stroke="#EE7453" stroke-opacity="0.2" stroke-width="4" stroke-miterlimit="10" stroke-linecap="round"/>
<path d="M1677.64 -512.832L478.483 513.043" stroke="#EF6F4C" stroke-opacity="0.2" stroke-width="4" stroke-miterlimit="10" stroke-linecap="round"/>
<path d="M1644.06 -564.269L478.368 512.736" stroke="#F16A46" stroke-opacity="0.2" stroke-width="4" stroke-miterlimit="10" stroke-linecap="round"/>
<path d="M1610.5 -615.706L478.272 512.448" stroke="#F2643F" stroke-opacity="0.2" stroke-width="4" stroke-miterlimit="10" stroke-linecap="round"/>
<path d="M1576.93 -667.123L478.157 512.141" stroke="#F35F38" stroke-opacity="0.2" stroke-width="4" stroke-miterlimit="10" stroke-linecap="round"/>
<path d="M1543.35 -718.522L478.042 511.834" stroke="#F55A31" stroke-opacity="0.2" stroke-width="4" stroke-miterlimit="10" stroke-linecap="round"/>
<path d="M1509.81 -769.92L477.926 511.507" stroke="#F6552A" stroke-opacity="0.2" stroke-width="4" stroke-miterlimit="10" stroke-linecap="round"/>
<path d="M1476.35 -821.434L477.754 511.258" stroke="#F75024" stroke-opacity="0.2" stroke-width="4" stroke-miterlimit="10" stroke-linecap="round"/>
<path d="M1442.9 -872.947L477.6 510.989" stroke="#F94B1D" stroke-opacity="0.2" stroke-width="4" stroke-miterlimit="10" stroke-linecap="round"/>
<path d="M1409.45 -924.461L477.427 510.739" stroke="#FA4616" stroke-opacity="0.2" stroke-width="4" stroke-miterlimit="10" stroke-linecap="round"/>
<path d="M-559.411 525.581H454.08" stroke="#D4D4D4" stroke-opacity="0.2" stroke-width="2" stroke-miterlimit="10" stroke-linecap="round"/>
<path d="M-530.611 568.934C-498.432 568.934 449.779 525.581 454.713 525.581" stroke="#C8D4D4" stroke-opacity="0.2" stroke-width="2" stroke-miterlimit="10" stroke-linecap="round"/>
<path d="M-501.831 612.288C-452.851 612.288 478.982 525.581 455.347 525.581" stroke="#BDD5D4" stroke-opacity="0.2" stroke-width="2" stroke-miterlimit="10" stroke-linecap="round"/>
<path d="M-473.049 655.642C-462.374 655.642 396.883 525.581 455.981 525.581" stroke="#B1D5D5" stroke-opacity="0.2" stroke-width="2" stroke-miterlimit="10" stroke-linecap="round"/>
<path d="M-444.269 698.995C-463.891 698.995 493.862 525.581 456.614 525.581" stroke="#A6D5D5" stroke-opacity="0.2" stroke-width="2" stroke-miterlimit="10" stroke-linecap="round"/>
<path d="M-415.469 742.349C-460.013 742.349 491.174 525.581 457.248 525.581" stroke="#9AD6D5" stroke-opacity="0.2" stroke-width="2" stroke-miterlimit="10" stroke-linecap="round"/>
<path d="M-386.688 785.683C-385.574 785.683 494.17 525.581 457.882 525.581" stroke="#8FD6D5" stroke-opacity="0.2" stroke-width="2" stroke-miterlimit="10" stroke-linecap="round"/>
<path d="M-357.907 829.037C-412.992 829.037 443.078 525.677 458.515 525.677" stroke="#83D6D6" stroke-opacity="0.2" stroke-width="2" stroke-miterlimit="10" stroke-linecap="round"/>
<path d="M-329.107 872.39C-383.059 872.39 479.52 525.581 459.149 525.581" stroke="#78D7D6" stroke-opacity="0.2" stroke-width="2" stroke-miterlimit="10" stroke-linecap="round"/>
<path d="M-300.326 915.84C-267.014 915.84 428.448 525.677 459.783 525.677" stroke="#6CD7D6" stroke-opacity="0.2" stroke-width="2" stroke-miterlimit="10" stroke-linecap="round"/>
<path d="M-271.546 959.098C-294.874 959.098 450.931 525.581 460.416 525.581" stroke="#60D7D6" stroke-opacity="0.2" stroke-width="2" stroke-miterlimit="10" stroke-linecap="round"/>
<path d="M-242.765 1002.45C-224.217 1002.45 413.357 525.581 461.05 525.581" stroke="#55D8D6" stroke-opacity="0.2" stroke-width="2" stroke-miterlimit="10" stroke-linecap="round"/>
<path d="M-213.965 1045.8C-250.752 1045.8 469.786 525.485 461.683 525.485" stroke="#49D8D7" stroke-opacity="0.2" stroke-width="2" stroke-miterlimit="10" stroke-linecap="round"/>
<path d="M-185.184 1089.16C-228.749 1089.16 458.342 525.581 462.317 525.581" stroke="#3ED8D7" stroke-opacity="0.2" stroke-width="2" stroke-miterlimit="10" stroke-linecap="round"/>
<path d="M-156.403 1132.51C-167.923 1132.51 426.95 525.581 462.95 525.581" stroke="#32D9D7" stroke-opacity="0.2" stroke-width="2" stroke-miterlimit="10" stroke-linecap="round"/>
<path d="M-127.603 1175.87C-167.558 1175.87 484.608 525.581 463.584 525.581" stroke="#27D9D7" stroke-opacity="0.2" stroke-width="2" stroke-miterlimit="10" stroke-linecap="round"/>
<path d="M-98.8223 1219.2C-96.4415 1219.2 476.199 525.562 464.218 525.562" stroke="#1BD9D8" stroke-opacity="0.2" stroke-width="2" stroke-miterlimit="10" stroke-linecap="round"/>
<path d="M-70.0414 1262.57C-81.1774 1262.57 452.199 525.581 464.851 525.581" stroke="#10DAD8" stroke-opacity="0.2" stroke-width="2" stroke-miterlimit="10" stroke-linecap="round"/>
<path d="M-41.2605 1305.93C-51.5133 1305.93 468.288 525.581 465.485 525.581" stroke="#04DAD8" stroke-opacity="0.2" stroke-width="2" stroke-miterlimit="10" stroke-linecap="round"/>
</svg>
