<svg width="197" height="55" viewBox="0 0 197 55" fill="none" xmlns="http://www.w3.org/2000/svg">
<path d="M4.77533 54.9758H11.2077C15.1406 54.9778 19.0118 54.0097 22.4701 52.1593C25.9285 50.3089 28.8646 47.6347 31.0122 44.3794L40.7586 29.548H21.5043L4.77533 54.9758Z" fill="white"/>
<path d="M35.9894 0H29.5509C25.6157 9.67982e-05 21.7428 0.97166 18.2842 2.82643C14.8255 4.6812 11.8907 7.36039 9.74636 10.6206L0 25.452H19.2543L35.9894 0Z" fill="white"/>
<path d="M24.1947 25.452H40.7586L32.4797 12.8499L24.1947 25.452Z" fill="white"/>
<path d="M16.5639 29.548H0L8.28502 42.1501L16.5639 29.548Z" fill="white"/>
<path d="M97.4208 17.695L99.408 19.6644H106.44V38.7912H107.944L109.937 36.8519V19.6644H116.969L118.956 17.695V16.2088H97.4208V17.695Z" fill="white"/>
<path d="M49.0436 20.619V29.2278H67.0811V32.9492L64.6721 35.3658H51.0308L49.0436 37.3292V38.8214H66.1151L70.5786 34.4112V25.7722H52.5411V22.0507L54.9502 19.6342H68.5914L70.5786 17.6648V16.2088H53.5072L49.0436 20.619Z" fill="white"/>
<path d="M150.225 16.2088L145.767 20.619V34.381L150.225 38.7912H165.315L167.302 36.8519V35.3356H151.674L149.265 32.919V22.0447L151.674 19.6282H167.302V18.1722L165.315 16.2088H150.225Z" fill="white"/>
<path d="M167.302 25.7722H155.447V29.2278H167.302V25.7722Z" fill="white"/>
<path d="M78.5946 16.2088L74.131 20.619V38.7912H75.6352L77.6529 36.8519V29.2278H92.193V38.7912H93.7033L95.666 36.8519V20.619L91.2086 16.2088H78.5946ZM92.1685 25.7722H77.6529V22.0507L80.0987 19.6342H89.7595L92.1685 22.0507V25.7722Z" fill="white"/>
<path d="M185.566 27.5L196.994 16.2088H192.408L183.279 25.2345L174.144 16.2088H169.552L180.98 27.5L169.552 38.7912H174.138L183.279 29.7594L192.414 38.7912H197L185.566 27.5Z" fill="white"/>
<path d="M142.258 29.2278V20.619L137.794 16.2088H125.186L120.723 20.619V38.7912H122.227L124.22 36.8519V22.0507L126.666 19.6342H136.351L138.766 22.0507V25.7722H130.549V29.2338L140.222 38.7912H145.168L135.489 29.2278H142.258Z" fill="white"/>
</svg>
