<svg width="1920" height="855" viewBox="0 0 1920 855" fill="none" xmlns="http://www.w3.org/2000/svg">
<path d="M279.833 380.319C810.249 -463.752 1572.62 -304.351 1829.85 -1115" stroke="#FA4616" stroke-width="2" stroke-linecap="round" stroke-linejoin="bevel" stroke-dasharray="31.39 11.66"/>
<path d="M282.099 380.343C818.402 -444.27 1598.63 -234.379 1849.26 -1046.92" stroke="#F3451E" stroke-width="2" stroke-linecap="round" stroke-linejoin="bevel" stroke-dasharray="30.18 11.66"/>
<path d="M284.365 380.343C826.677 -424.789 1624.67 -164.432 1868.69 -978.849" stroke="#ED4427" stroke-width="2" stroke-linecap="round" stroke-linejoin="bevel" stroke-dasharray="28.97 11.66"/>
<path d="M286.606 380.368C834.879 -405.307 1650.7 -94.4603 1888.13 -910.774" stroke="#E6432F" stroke-width="2" stroke-linecap="round" stroke-linejoin="bevel" stroke-dasharray="27.76 11.66"/>
<path d="M288.872 380.368C843.031 -385.85 1676.73 -24.5623 1907.56 -842.674" stroke="#DF4238" stroke-width="2" stroke-linecap="round" stroke-linejoin="bevel" stroke-dasharray="26.56 11.66"/>
<path d="M291.138 380.392C851.282 -366.368 1702.77 45.434 1926.99 -774.599" stroke="#D94140" stroke-width="2" stroke-linecap="round" stroke-linejoin="bevel" stroke-dasharray="25.35 11.66"/>
<path d="M293.404 380.392C859.483 -346.886 1728.8 115.406 1946.42 -706.523" stroke="#D24049" stroke-width="2" stroke-linecap="round" stroke-linejoin="bevel" stroke-dasharray="24.14 11.66"/>
<path d="M295.67 380.417C867.66 -327.503 1754.83 185.353 1965.86 -638.448" stroke="#CB3E51" stroke-width="2" stroke-linecap="round" stroke-linejoin="bevel" stroke-dasharray="22.94 11.66"/>
<path d="M297.935 380.417C875.887 -307.799 1780.84 255.325 1985.26 -570.372" stroke="#C43D5A" stroke-width="2" stroke-linecap="round" stroke-linejoin="bevel" stroke-dasharray="21.73 11.66"/>
<path d="M300.177 380.442C884.088 -288.441 1806.87 325.174 2004.7 -502.371" stroke="#BE3C62" stroke-width="2" stroke-linecap="round" stroke-linejoin="bevel" stroke-dasharray="20.52 11.66"/>
<path d="M302.443 380.442C892.29 -268.959 1832.91 395.219 2024.03 -434.222" stroke="#B73B6B" stroke-width="2" stroke-linecap="round" stroke-linejoin="bevel" stroke-dasharray="19.31 11.66"/>
<path d="M304.708 380.466C900.491 -249.477 1858.94 465.191 2043.54 -366.146" stroke="#B03A73" stroke-width="2" stroke-linecap="round" stroke-linejoin="bevel" stroke-dasharray="18.11 11.66"/>
<path d="M306.974 380.466C908.693 -230.02 1884.97 535.138 2063.04 -298.071" stroke="#AA397C" stroke-width="2" stroke-linecap="round" stroke-linejoin="bevel" stroke-dasharray="16.9 11.66"/>
<path d="M309.24 380.491C916.894 -210.612 1911.01 605.11 2082.55 -229.971" stroke="#A33884" stroke-width="2" stroke-linecap="round" stroke-linejoin="bevel" stroke-dasharray="15.69 11.66"/>
<path d="M311.506 380.491C925.096 -191.057 1937.04 675.057 2101.86 -161.895" stroke="#9C378C" stroke-width="2" stroke-linecap="round" stroke-linejoin="bevel" stroke-dasharray="14.49 11.66"/>
<path d="M313.747 380.516C933.297 -171.575 1963.05 745.029 2121.29 -93.8201" stroke="#963695" stroke-width="2" stroke-linecap="round" stroke-linejoin="bevel" stroke-dasharray="13.28 11.66"/>
<path d="M315.964 380.54C941.548 -152.093 1989.03 814.977 2140.65 -25.8431" stroke="#8F359D" stroke-width="2" stroke-linecap="round" stroke-linejoin="bevel" stroke-dasharray="12.07 11.66"/>
<path d="M318.279 380.54C949.701 -132.611 2015.24 884.948 2160.13 42.3308" stroke="#8834A6" stroke-width="2" stroke-linecap="round" stroke-linejoin="bevel" stroke-dasharray="10.86 11.66"/>
<path d="M320.545 380.565C957.902 -113.228 2041.15 954.896 2179.56 110.406" stroke="#8233AE" stroke-width="2" stroke-linecap="round" stroke-linejoin="bevel" stroke-dasharray="9.66 11.66"/>
<path d="M322.811 380.565C966.178 -93.5245 2067.11 1024.84 2199 178.482" stroke="#7B32B7" stroke-width="2" stroke-linecap="round" stroke-linejoin="bevel" stroke-dasharray="8.45 11.66"/>
<path d="M325.077 380.59C974.305 -74.1903 2093.21 1094.84 2218.43 246.557" stroke="#7430BF" stroke-width="2" stroke-linecap="round" stroke-linejoin="bevel" stroke-dasharray="7.24 11.66"/>
<path d="M327.318 380.59C982.458 -54.7087 2119.22 1164.76 2237.84 314.657" stroke="#6D2FC8" stroke-width="2" stroke-linecap="round" stroke-linejoin="bevel" stroke-dasharray="6.04 11.66"/>
<path d="M329.584 380.614C990.708 -35.2271 2145.26 1234.73 2257.27 382.732" stroke="#672ED0" stroke-width="2" stroke-linecap="round" stroke-linejoin="bevel" stroke-dasharray="4.83 11.66"/>
<path d="M331.85 380.614C998.91 -15.7451 2171.29 1304.68 2276.7 450.783" stroke="#602DD9" stroke-width="2" stroke-linecap="round" stroke-linejoin="bevel" stroke-dasharray="3.62 11.66"/>
<path d="M334.116 380.639C1007.11 3.81059 2197.32 1374.65 2296.14 518.883" stroke="#592CE1" stroke-width="2" stroke-linecap="round" stroke-linejoin="bevel" stroke-dasharray="2.41 11.66"/>
<path d="M336.382 380.639C1015.31 23.2184 2223.36 1444.62 2315.57 586.958" stroke="#532BEA" stroke-width="2" stroke-linecap="round" stroke-linejoin="bevel" stroke-dasharray="1.21 11.66"/>
<path d="M-627.806 1262.37C-291.838 761.457 -184.257 1078.51 247.002 392.091" stroke="#04DAD8" stroke-linecap="round" stroke-linejoin="round"/>
<path d="M-637.978 1222.42C-273.12 754.265 -176.622 1062.16 244.539 391.993" stroke="#05D3D5" stroke-linecap="round" stroke-linejoin="round"/>
<path d="M-647.682 1182.94C-256.79 748.453 -169.11 1045.8 242.076 391.894" stroke="#06CDD1" stroke-linecap="round" stroke-linejoin="round"/>
<path d="M-656.893 1144C-243.121 743.576 -161.549 1029.57 239.613 391.821" stroke="#07C6CE" stroke-linecap="round" stroke-linejoin="round"/>
<path d="M-666.08 1105.7C-232.333 739.217 -153.963 1013.09 237.15 391.673" stroke="#08C0CB" stroke-linecap="round" stroke-linejoin="round"/>
<path d="M-675.045 1068.07C-224.329 734.931 -146.402 996.642 234.761 391.648" stroke="#09B9C8" stroke-linecap="round" stroke-linejoin="round"/>
<path d="M-683.985 1031.07C-219.354 730.325 -138.84 980.313 232.348 391.673" stroke="#0AB2C4" stroke-linecap="round" stroke-linejoin="round"/>
<path d="M-693 994.721C-216.965 725.055 -131.279 964.033 229.909 391.476" stroke="#0BACC1" stroke-linecap="round" stroke-linejoin="round"/>
<path d="M-702.162 958.935C-216.965 718.824 -123.694 947.704 227.496 391.402" stroke="#0DA5BE" stroke-linecap="round" stroke-linejoin="round"/>
<path d="M-711.546 923.666C-219.329 711.435 -116.132 931.301 225.057 391.254" stroke="#0E9EBA" stroke-linecap="round" stroke-linejoin="round"/>
<path d="M-721.2 888.988C-223.417 702.889 -108.571 915.021 222.619 391.23" stroke="#0F98B7" stroke-linecap="round" stroke-linejoin="round"/>
<path d="M-731.151 854.704C-229.427 693.012 -101.01 898.691 220.181 391.18" stroke="#1091B4" stroke-linecap="round" stroke-linejoin="round"/>
<path d="M-741.396 820.764C-236.742 681.732 -93.4489 882.338 217.767 391.106" stroke="#118BB1" stroke-linecap="round" stroke-linejoin="round"/>
<path d="M-751.962 787.17C-245.165 669.146 -85.8876 865.984 215.329 391.032" stroke="#1284AD" stroke-linecap="round" stroke-linejoin="round"/>
<path d="M-762.799 753.846C-254.549 655.206 -78.3511 849.777 212.866 390.958" stroke="#137DAA" stroke-linecap="round" stroke-linejoin="round"/>
<path d="M-774.03 720.745C-264.672 640.256 -70.716 833.35 210.427 390.909" stroke="#1477A7" stroke-linecap="round" stroke-linejoin="round"/>
<path d="M-785.483 687.865C-275.385 624.075 -63.3272 817.021 207.989 390.86" stroke="#1570A3" stroke-linecap="round" stroke-linejoin="round"/>
<path d="M-797.28 655.206C-286.592 606.933 -55.7413 800.79 205.502 390.885" stroke="#166AA0" stroke-linecap="round" stroke-linejoin="round"/>
<path d="M-809.226 622.548C-298.02 588.682 -48.1803 784.412 203.039 390.761" stroke="#17639D" stroke-linecap="round" stroke-linejoin="round"/>
<path d="M-821.491 590.062C-309.719 569.644 -40.6188 768.107 200.625 390.712" stroke="#185C99" stroke-linecap="round" stroke-linejoin="round"/>
<path d="M-833.953 557.674C-321.541 549.793 -33.0823 751.802 198.162 390.688" stroke="#195696" stroke-linecap="round" stroke-linejoin="round"/>
<path d="M-846.539 525.385C-333.313 529.227 -25.4473 735.522 195.798 390.663" stroke="#1A4F93" stroke-linecap="round" stroke-linejoin="round"/>
<path d="M-859.518 493.145C-345.258 507.923 -18.0336 719.242 193.237 390.663" stroke="#1B4990" stroke-linecap="round" stroke-linejoin="round"/>
<path d="M-872.572 460.955C-357.081 486.249 -10.5465 702.987 190.749 390.663" stroke="#1C428C" stroke-linecap="round" stroke-linejoin="round"/>
<path d="M-885.798 428.813C-368.73 463.959 -3.0098 686.731 188.261 390.663" stroke="#1E3B89" stroke-linecap="round" stroke-linejoin="round"/>
<path d="M-899.172 396.599C-380.355 441.128 4.4774 670.378 185.774 390.589" stroke="#1F3586" stroke-linecap="round" stroke-linejoin="round"/>
<path d="M-912.693 364.58C-391.759 418.051 11.9647 654.221 183.311 390.688" stroke="#202E82" stroke-linecap="round" stroke-linejoin="round"/>
<path d="M-926.338 332.562C-402.965 394.603 19.4272 637.965 180.724 390.786" stroke="#21277F" stroke-linecap="round" stroke-linejoin="round"/>
<path d="M-940.13 300.544C-413.974 370.836 26.89 621.907 178.188 390.909" stroke="#22217C" stroke-linecap="round" stroke-linejoin="round"/>
<path d="M-953.996 268.526C-424.737 346.749 34.3281 605.726 175.577 391.008" stroke="#231A79" stroke-linecap="round" stroke-linejoin="round"/>
<path d="M-967.986 236.508C-435.23 322.44 41.7415 589.618 173.114 391.156" stroke="#241475" stroke-linecap="round" stroke-linejoin="round"/>
<path d="M-982 204.49C-445.451 298.081 49.2042 573.609 170.503 391.402" stroke="#250D72" stroke-linecap="round" stroke-linejoin="round"/>
</svg>
