<svg width="359" height="106" viewBox="0 0 359 106" fill="none" xmlns="http://www.w3.org/2000/svg">
<path d="M116.16 3.66662L120.941 8.43329H137.823V54.9267H141.446L146.198 50.1453V8.43329H163.079L167.86 3.66662V0.0439453H116.16V3.66662Z" fill="white"/>
<path d="M0 10.7066V31.68H43.3254V40.7293L37.4587 46.596H4.78134C2.91867 48.4733 1.848 49.5293 0 51.3773V55H41.0667L51.788 44.2786V23.276H8.40401V14.2413L14.1973 8.37462H46.948L51.7294 3.60795V0.0439453H10.6627L0 10.7066Z" fill="white"/>
<path d="M242.997 0.0439453L232.291 10.7506V44.2053L242.997 54.9267H279.224L284.005 50.1453V46.5226H246.459L240.592 40.656V14.2413L246.459 8.37462H283.976V4.83995L279.195 0.0586123L242.997 0.0439453Z" fill="white"/>
<path d="M283.976 23.276H255.508V31.68H283.976V23.276Z" fill="white"/>
<path d="M70.9574 0.0439982L60.2507 10.7067V54.9267H63.8734L68.6401 50.1454V31.68H103.561V54.9267H107.184L111.965 50.1454V10.7067L101.244 0L70.9574 0.0439982ZM103.561 23.276H68.6401V14.2413L74.5067 8.37467H97.7974L103.664 14.2413L103.561 23.276Z" fill="white"/>
<path d="M327.83 27.4853L355.271 0.0439453H344.256L322.33 21.9853L300.403 0.0439453H289.388L316.815 27.4853L289.374 54.9267H300.388L322.33 32.9853L344.271 54.9267H355.286L327.83 27.4853Z" fill="white"/>
<path d="M223.843 31.68V10.7067L213.122 0H182.864L172.157 10.7067V54.9267H175.78L180.547 50.1454V14.2413L186.413 8.448H209.734L215.6 14.2413V23.2907H195.712V31.6947L218.959 54.9267H230.824L207.578 31.68H223.843Z" fill="white"/>
<path d="M13.775 86.925C13.8917 86.8917 13.9667 86.8833 14 86.9C14.05 86.9 14.1083 86.9333 14.175 87L14.925 87.75C14.225 88.5333 13.4 89.1333 12.45 89.55C11.5 89.9667 10.35 90.175 9 90.175C7.83333 90.175 6.76667 89.9833 5.8 89.6C4.85 89.2167 4.025 88.675 3.325 87.975C2.64167 87.2583 2.10833 86.3917 1.725 85.375C1.35833 84.3583 1.175 83.2167 1.175 81.95C1.175 80.7333 1.36667 79.6083 1.75 78.575C2.13333 77.5417 2.675 76.65 3.375 75.9C4.075 75.15 4.91667 74.5667 5.9 74.15C6.88333 73.7333 7.98333 73.525 9.2 73.525C10.3333 73.525 11.3417 73.7 12.225 74.05C13.1083 74.4 13.9083 74.9083 14.625 75.575C14.325 76.025 14.1083 76.3167 13.975 76.45C13.8583 76.5667 13.7417 76.625 13.625 76.625C13.5417 76.625 13.4167 76.575 13.25 76.475C12.8667 76.2083 12.5083 75.9833 12.175 75.8C11.8583 75.6167 11.5417 75.475 11.225 75.375C10.9083 75.2583 10.5833 75.175 10.25 75.125C9.93333 75.075 9.58333 75.05 9.2 75.05C8.23333 75.05 7.36667 75.225 6.6 75.575C5.85 75.925 5.20833 76.4083 4.675 77.025C4.15833 77.6417 3.75833 78.375 3.475 79.225C3.20833 80.0583 3.075 80.9667 3.075 81.95C3.075 83.0167 3.225 83.9667 3.525 84.8C3.84167 85.6333 4.26667 86.3333 4.8 86.9C5.33333 87.4667 5.96667 87.9 6.7 88.2C7.43333 88.5 8.225 88.65 9.075 88.65C9.85833 88.65 10.5333 88.575 11.1 88.425C11.6667 88.275 12.2167 88.0083 12.75 87.625C12.9333 87.525 13.1083 87.4167 13.275 87.3C13.4417 87.1667 13.6083 87.0417 13.775 86.925ZM18.8529 81C19.1863 80.1 19.6279 79.4083 20.1779 78.925C20.7279 78.4417 21.4279 78.2 22.2779 78.2C22.5279 78.2 22.7613 78.225 22.9779 78.275C23.2113 78.3083 23.4196 78.3833 23.6029 78.5L23.4529 79.725C23.4029 79.8917 23.3113 79.975 23.1779 79.975C23.0613 79.975 22.9029 79.95 22.7029 79.9C22.5196 79.8333 22.2863 79.8 22.0029 79.8C21.1863 79.8 20.5529 80.0417 20.1029 80.525C19.6529 80.9917 19.2696 81.6917 18.9529 82.625V90H17.2279V78.4H18.1779C18.3779 78.4 18.5113 78.4417 18.5779 78.525C18.6446 78.5917 18.6946 78.7 18.7279 78.85L18.8529 81ZM35.3531 78.4L28.8031 93.575C28.7198 93.7083 28.6365 93.8083 28.5531 93.875C28.4698 93.9583 28.3281 94 28.1281 94H26.8781L28.9781 89.425L24.1531 78.4H25.6031C25.7865 78.4 25.9198 78.4417 26.0031 78.525C26.0865 78.5917 26.1448 78.6667 26.1781 78.75L29.5531 86.775C29.6198 86.9417 29.6698 87.0917 29.7031 87.225C29.7531 87.3583 29.7948 87.5083 29.8281 87.675C29.8948 87.5083 29.9448 87.3583 29.9781 87.225C30.0281 87.0917 30.0865 86.9333 30.1531 86.75L33.4531 78.75C33.4865 78.65 33.5531 78.5667 33.6531 78.5C33.7698 78.4333 33.8865 78.4 34.0031 78.4H35.3531ZM39.0701 87.325C39.4701 87.8917 39.9035 88.2917 40.3701 88.525C40.8368 88.7583 41.3785 88.875 41.9951 88.875C43.1785 88.875 44.0785 88.45 44.6951 87.6C45.3118 86.75 45.6201 85.5917 45.6201 84.125C45.6201 82.5083 45.3451 81.3417 44.7951 80.625C44.2451 79.8917 43.4535 79.525 42.4201 79.525C41.7201 79.525 41.0951 79.7 40.5451 80.05C39.9951 80.4 39.5035 80.8833 39.0701 81.5V87.325ZM38.9701 80.35C39.4535 79.6833 40.0285 79.1583 40.6951 78.775C41.3618 78.3917 42.1118 78.2 42.9451 78.2C44.3285 78.2 45.4118 78.7 46.1951 79.7C46.9951 80.6833 47.3951 82.1583 47.3951 84.125C47.3951 84.975 47.2785 85.7667 47.0451 86.5C46.8285 87.2333 46.5035 87.875 46.0701 88.425C45.6368 88.9583 45.1118 89.3833 44.4951 89.7C43.8785 90 43.1701 90.15 42.3701 90.15C41.6201 90.15 40.9785 90.025 40.4451 89.775C39.9285 89.5083 39.4701 89.125 39.0701 88.625V94H37.3451V78.4H38.3201C38.6035 78.4 38.7701 78.525 38.8201 78.775L38.9701 80.35ZM53.6113 90.175C52.7447 90.175 52.078 89.9417 51.6113 89.475C51.1447 89.0083 50.9113 88.3083 50.9113 87.375V79.975H49.4113C49.1447 79.975 49.0113 79.8583 49.0113 79.625V78.975L50.9863 78.775L51.3363 74.925C51.3863 74.7083 51.5363 74.6 51.7863 74.6H52.6113V78.775H56.0613V79.975H52.6113V87.25C52.6113 87.7833 52.7447 88.1833 53.0113 88.45C53.278 88.7167 53.6113 88.85 54.0113 88.85C54.2447 88.85 54.4447 88.8167 54.6113 88.75C54.7947 88.6833 54.9447 88.6083 55.0613 88.525C55.1947 88.4417 55.303 88.3667 55.3863 88.3C55.4697 88.2333 55.5363 88.2 55.5863 88.2C55.6863 88.2 55.778 88.25 55.8613 88.35L56.3613 89.1C56.028 89.4333 55.6113 89.7 55.1113 89.9C54.628 90.0833 54.128 90.175 53.6113 90.175ZM63.1406 78.2C63.9906 78.2 64.749 78.3417 65.4156 78.625C66.0823 78.9083 66.649 79.3167 67.1156 79.85C67.599 80.3667 67.9656 80.9917 68.2156 81.725C68.4656 82.4583 68.5906 83.2833 68.5906 84.2C68.5906 86.0333 68.1073 87.4833 67.1406 88.55C66.174 89.6167 64.8406 90.15 63.1406 90.15C61.4406 90.15 60.1073 89.6167 59.1406 88.55C58.174 87.4833 57.6906 86.0333 57.6906 84.2C57.6906 83.2833 57.8156 82.4583 58.0656 81.725C58.3156 80.9917 58.674 80.3667 59.1406 79.85C59.624 79.3167 60.199 78.9083 60.8656 78.625C61.5323 78.3417 62.2906 78.2 63.1406 78.2ZM63.1406 88.85C64.3906 88.85 65.3156 88.4417 65.9156 87.625C66.5323 86.7917 66.8406 85.65 66.8406 84.2C66.8406 82.7333 66.5323 81.5917 65.9156 80.775C65.3156 79.9417 64.3906 79.525 63.1406 79.525C61.8906 79.525 60.9656 79.9417 60.3656 80.775C59.7656 81.5917 59.4656 82.7333 59.4656 84.2C59.4656 85.65 59.7656 86.7917 60.3656 87.625C60.9656 88.4417 61.8906 88.85 63.1406 88.85ZM79.3045 80.25C79.2545 80.3 79.2045 80.35 79.1545 80.4C79.1045 80.4333 79.0378 80.45 78.9545 80.45C78.8545 80.45 78.7295 80.4 78.5795 80.3C78.4462 80.2 78.2712 80.0917 78.0545 79.975C77.8378 79.8583 77.5795 79.75 77.2795 79.65C76.9795 79.55 76.6045 79.5 76.1545 79.5C74.9378 79.5 74.0045 79.9167 73.3545 80.75C72.7212 81.5833 72.4045 82.7333 72.4045 84.2C72.4045 85.7167 72.7295 86.875 73.3795 87.675C74.0462 88.475 74.9295 88.875 76.0295 88.875C76.5462 88.875 76.9712 88.8167 77.3045 88.7C77.6545 88.5667 77.9378 88.425 78.1545 88.275C78.3878 88.125 78.5712 87.9917 78.7045 87.875C78.8378 87.7417 78.9712 87.675 79.1045 87.675C79.2712 87.675 79.3878 87.7333 79.4545 87.85L79.9045 88.425C79.4545 88.9917 78.8545 89.425 78.1045 89.725C77.3712 90.0083 76.5795 90.15 75.7295 90.15C74.9962 90.15 74.3212 90.0167 73.7045 89.75C73.0878 89.4833 72.5545 89.1 72.1045 88.6C71.6545 88.0833 71.2962 87.4583 71.0295 86.725C70.7795 85.975 70.6545 85.1333 70.6545 84.2C70.6545 83.3333 70.7712 82.5333 71.0045 81.8C71.2378 81.0667 71.5795 80.4333 72.0295 79.9C72.4962 79.3667 73.0628 78.95 73.7295 78.65C74.4128 78.35 75.1878 78.2 76.0545 78.2C76.8545 78.2 77.5545 78.3333 78.1545 78.6C78.7712 78.85 79.3128 79.1917 79.7795 79.625L79.3045 80.25ZM91.6664 78.4V90H90.6664C90.3831 90 90.2164 89.875 90.1664 89.625L90.0414 88.125C89.5414 88.7583 88.9664 89.2583 88.3164 89.625C87.6664 89.9917 86.9164 90.175 86.0664 90.175C84.7664 90.175 83.7914 89.7833 83.1414 89C82.5081 88.2167 82.1914 87.15 82.1914 85.8V78.4H83.8914V85.8C83.8914 86.7667 84.1081 87.525 84.5414 88.075C84.9747 88.6083 85.6414 88.875 86.5414 88.875C87.2081 88.875 87.8247 88.7083 88.3914 88.375C88.9581 88.0417 89.4831 87.5833 89.9664 87V78.4H91.6664ZM96.7094 81C97.0427 80.1 97.4844 79.4083 98.0344 78.925C98.5844 78.4417 99.2844 78.2 100.134 78.2C100.384 78.2 100.618 78.225 100.834 78.275C101.068 78.3083 101.276 78.3833 101.459 78.5L101.309 79.725C101.259 79.8917 101.168 79.975 101.034 79.975C100.918 79.975 100.759 79.95 100.559 79.9C100.376 79.8333 100.143 79.8 99.8594 79.8C99.0427 79.8 98.4094 80.0417 97.9594 80.525C97.5094 80.9917 97.126 81.6917 96.8094 82.625V90H95.0844V78.4H96.0344C96.2344 78.4 96.3677 78.4417 96.4344 78.525C96.501 78.5917 96.551 78.7 96.5844 78.85L96.7094 81ZM105.035 81C105.368 80.1 105.81 79.4083 106.36 78.925C106.91 78.4417 107.61 78.2 108.46 78.2C108.71 78.2 108.943 78.225 109.16 78.275C109.393 78.3083 109.601 78.3833 109.785 78.5L109.635 79.725C109.585 79.8917 109.493 79.975 109.36 79.975C109.243 79.975 109.085 79.95 108.885 79.9C108.701 79.8333 108.468 79.8 108.185 79.8C107.368 79.8 106.735 80.0417 106.285 80.525C105.835 80.9917 105.451 81.6917 105.135 82.625V90H103.41V78.4H104.36C104.56 78.4 104.693 78.4417 104.76 78.525C104.826 78.5917 104.876 78.7 104.91 78.85L105.035 81ZM119.635 82.975C119.635 81.9083 119.343 81.05 118.76 80.4C118.193 79.75 117.426 79.425 116.46 79.425C115.376 79.425 114.535 79.7417 113.935 80.375C113.335 81.0083 112.968 81.875 112.835 82.975H119.635ZM112.785 84.1C112.768 84.7333 112.835 85.3417 112.985 85.925C113.135 86.4917 113.368 86.9917 113.685 87.425C114.001 87.8583 114.401 88.2083 114.885 88.475C115.385 88.725 115.968 88.85 116.635 88.85C117.185 88.85 117.651 88.7917 118.035 88.675C118.435 88.5417 118.768 88.4083 119.035 88.275C119.318 88.125 119.543 87.9917 119.71 87.875C119.893 87.7417 120.035 87.675 120.135 87.675C120.285 87.675 120.41 87.7333 120.51 87.85L120.96 88.425C120.51 88.9917 119.868 89.425 119.035 89.725C118.218 90.0083 117.376 90.15 116.51 90.15C115.71 90.15 114.968 90.0167 114.285 89.75C113.618 89.4833 113.043 89.0917 112.56 88.575C112.093 88.0417 111.726 87.3917 111.46 86.625C111.193 85.8417 111.06 84.95 111.06 83.95C111.06 83.1333 111.176 82.375 111.41 81.675C111.66 80.975 112.01 80.3667 112.46 79.85C112.926 79.3333 113.493 78.9333 114.16 78.65C114.826 78.35 115.576 78.2 116.41 78.2C117.093 78.2 117.726 78.3167 118.31 78.55C118.893 78.7833 119.393 79.125 119.81 79.575C120.243 80.0083 120.576 80.55 120.81 81.2C121.06 81.85 121.185 82.5917 121.185 83.425C121.185 83.6917 121.151 83.875 121.085 83.975C121.035 84.0583 120.926 84.1 120.76 84.1H112.785ZM125.469 80.275C125.985 79.6417 126.569 79.1417 127.219 78.775C127.869 78.3917 128.619 78.2 129.469 78.2C130.769 78.2 131.735 78.6 132.369 79.4C133.019 80.2 133.344 81.275 133.344 82.625V90H131.644V82.625C131.644 81.6583 131.419 80.9 130.969 80.35C130.535 79.8 129.877 79.525 128.994 79.525C128.31 79.525 127.685 79.7 127.119 80.05C126.569 80.3833 126.06 80.8417 125.594 81.425V90H123.869V78.4H124.844C125.127 78.4 125.294 78.525 125.344 78.775L125.469 80.275ZM144.661 80.25C144.611 80.3 144.561 80.35 144.511 80.4C144.461 80.4333 144.394 80.45 144.311 80.45C144.211 80.45 144.086 80.4 143.936 80.3C143.803 80.2 143.628 80.0917 143.411 79.975C143.194 79.8583 142.936 79.75 142.636 79.65C142.336 79.55 141.961 79.5 141.511 79.5C140.294 79.5 139.361 79.9167 138.711 80.75C138.078 81.5833 137.761 82.7333 137.761 84.2C137.761 85.7167 138.086 86.875 138.736 87.675C139.403 88.475 140.286 88.875 141.386 88.875C141.903 88.875 142.328 88.8167 142.661 88.7C143.011 88.5667 143.294 88.425 143.511 88.275C143.744 88.125 143.928 87.9917 144.061 87.875C144.194 87.7417 144.328 87.675 144.461 87.675C144.628 87.675 144.744 87.7333 144.811 87.85L145.261 88.425C144.811 88.9917 144.211 89.425 143.461 89.725C142.728 90.0083 141.936 90.15 141.086 90.15C140.353 90.15 139.678 90.0167 139.061 89.75C138.444 89.4833 137.911 89.1 137.461 88.6C137.011 88.0833 136.653 87.4583 136.386 86.725C136.136 85.975 136.011 85.1333 136.011 84.2C136.011 83.3333 136.128 82.5333 136.361 81.8C136.594 81.0667 136.936 80.4333 137.386 79.9C137.853 79.3667 138.419 78.95 139.086 78.65C139.769 78.35 140.544 78.2 141.411 78.2C142.211 78.2 142.911 78.3333 143.511 78.6C144.128 78.85 144.669 79.1917 145.136 79.625L144.661 80.25ZM157.448 78.4L150.898 93.575C150.815 93.7083 150.731 93.8083 150.648 93.875C150.565 93.9583 150.423 94 150.223 94H148.973L151.073 89.425L146.248 78.4H147.698C147.881 78.4 148.015 78.4417 148.098 78.525C148.181 78.5917 148.24 78.6667 148.273 78.75L151.648 86.775C151.715 86.9417 151.765 87.0917 151.798 87.225C151.848 87.3583 151.89 87.5083 151.923 87.675C151.99 87.5083 152.04 87.3583 152.073 87.225C152.123 87.0917 152.181 86.9333 152.248 86.75L155.548 78.75C155.581 78.65 155.648 78.5667 155.748 78.5C155.865 78.4333 155.981 78.4 156.098 78.4H157.448ZM165.623 75.15V81.025H172.323V82.45H165.623V88.55H173.823L173.798 90H163.773V73.7H173.798V75.15H165.623ZM185.779 90H184.129C183.979 90 183.854 89.9667 183.754 89.9C183.67 89.8167 183.604 89.7333 183.554 89.65L180.404 84.925C180.354 85.075 180.295 85.225 180.229 85.375L177.279 89.65C177.195 89.7333 177.112 89.8167 177.029 89.9C176.962 89.9667 176.862 90 176.729 90H175.204L179.329 84.05L175.354 78.4H177.029C177.162 78.4 177.254 78.425 177.304 78.475C177.37 78.525 177.437 78.5917 177.504 78.675L180.579 83.2C180.645 83.0167 180.72 82.8583 180.804 82.725L183.554 78.7C183.62 78.6167 183.687 78.55 183.754 78.5C183.82 78.4333 183.912 78.4 184.029 78.4H185.604L181.629 83.975L185.779 90ZM195.808 80.25C195.758 80.3 195.708 80.35 195.658 80.4C195.608 80.4333 195.542 80.45 195.458 80.45C195.358 80.45 195.233 80.4 195.083 80.3C194.95 80.2 194.775 80.0917 194.558 79.975C194.342 79.8583 194.083 79.75 193.783 79.65C193.483 79.55 193.108 79.5 192.658 79.5C191.442 79.5 190.508 79.9167 189.858 80.75C189.225 81.5833 188.908 82.7333 188.908 84.2C188.908 85.7167 189.233 86.875 189.883 87.675C190.55 88.475 191.433 88.875 192.533 88.875C193.05 88.875 193.475 88.8167 193.808 88.7C194.158 88.5667 194.442 88.425 194.658 88.275C194.892 88.125 195.075 87.9917 195.208 87.875C195.342 87.7417 195.475 87.675 195.608 87.675C195.775 87.675 195.892 87.7333 195.958 87.85L196.408 88.425C195.958 88.9917 195.358 89.425 194.608 89.725C193.875 90.0083 193.083 90.15 192.233 90.15C191.5 90.15 190.825 90.0167 190.208 89.75C189.592 89.4833 189.058 89.1 188.608 88.6C188.158 88.0833 187.8 87.4583 187.533 86.725C187.283 85.975 187.158 85.1333 187.158 84.2C187.158 83.3333 187.275 82.5333 187.508 81.8C187.742 81.0667 188.083 80.4333 188.533 79.9C189 79.3667 189.567 78.95 190.233 78.65C190.917 78.35 191.692 78.2 192.558 78.2C193.358 78.2 194.058 78.3333 194.658 78.6C195.275 78.85 195.817 79.1917 196.283 79.625L195.808 80.25ZM200.52 80.15C201.02 79.5667 201.587 79.1 202.22 78.75C202.87 78.3833 203.595 78.2 204.395 78.2C205.695 78.2 206.662 78.6 207.295 79.4C207.945 80.2 208.27 81.275 208.27 82.625V90H206.57V82.625C206.57 81.6583 206.345 80.9 205.895 80.35C205.462 79.8 204.804 79.525 203.92 79.525C203.237 79.525 202.612 79.7 202.045 80.05C201.495 80.3833 200.987 80.8417 200.52 81.425V90H198.795V73.325H200.52V80.15ZM217.963 84.6C215.979 84.6833 214.546 84.9417 213.663 85.375C212.796 85.7917 212.363 86.3583 212.363 87.075C212.363 87.775 212.563 88.2833 212.963 88.6C213.379 88.9 213.871 89.05 214.438 89.05C215.238 89.05 215.904 88.8917 216.438 88.575C216.971 88.2417 217.479 87.8167 217.963 87.3V84.6ZM211.288 80.025C211.921 79.425 212.596 78.975 213.313 78.675C214.029 78.3583 214.829 78.2 215.713 78.2C217.013 78.2 217.988 78.6 218.638 79.4C219.304 80.1833 219.638 81.225 219.638 82.525V90H218.913C218.729 90 218.588 89.975 218.488 89.925C218.404 89.875 218.338 89.7667 218.288 89.6L218.113 88.275C217.813 88.575 217.513 88.8417 217.213 89.075C216.913 89.3083 216.596 89.5083 216.263 89.675C215.946 89.8417 215.596 89.9667 215.213 90.05C214.829 90.1333 214.404 90.175 213.938 90.175C213.504 90.175 213.088 90.1167 212.688 90C212.304 89.8833 211.963 89.7 211.663 89.45C211.379 89.2 211.146 88.8917 210.963 88.525C210.796 88.1417 210.713 87.6833 210.713 87.15C210.713 86.6833 210.846 86.2417 211.113 85.825C211.379 85.3917 211.796 85.0167 212.363 84.7C212.946 84.3667 213.696 84.1 214.613 83.9C215.529 83.7 216.646 83.5833 217.963 83.55V82.525C217.963 81.5417 217.754 80.8 217.338 80.3C216.921 79.7833 216.313 79.525 215.513 79.525C214.996 79.525 214.554 79.6 214.188 79.75C213.838 79.8833 213.538 80.0333 213.288 80.2C213.038 80.3667 212.821 80.525 212.638 80.675C212.454 80.8083 212.288 80.875 212.138 80.875C211.888 80.875 211.704 80.7667 211.588 80.55L211.288 80.025ZM224.565 80.275C225.082 79.6417 225.665 79.1417 226.315 78.775C226.965 78.3917 227.715 78.2 228.565 78.2C229.865 78.2 230.832 78.6 231.465 79.4C232.115 80.2 232.44 81.275 232.44 82.625V90H230.74V82.625C230.74 81.6583 230.515 80.9 230.065 80.35C229.632 79.8 228.974 79.525 228.09 79.525C227.407 79.525 226.782 79.7 226.215 80.05C225.665 80.3833 225.157 80.8417 224.69 81.425V90H222.965V78.4H223.94C224.224 78.4 224.39 78.525 224.44 78.775L224.565 80.275ZM239.733 84.575C240.633 84.575 241.308 84.3333 241.758 83.85C242.224 83.3667 242.458 82.75 242.458 82C242.458 81.2 242.224 80.5667 241.758 80.1C241.291 79.6167 240.616 79.375 239.733 79.375C238.849 79.375 238.174 79.6167 237.708 80.1C237.241 80.5667 237.008 81.2 237.008 82C237.008 82.75 237.241 83.3667 237.708 83.85C238.174 84.3333 238.849 84.575 239.733 84.575ZM243.633 90.725C243.633 90.2417 243.449 89.8917 243.083 89.675C242.716 89.4583 242.258 89.3167 241.708 89.25C241.158 89.1667 240.549 89.1167 239.883 89.1C239.233 89.0833 238.624 89.0333 238.058 88.95C237.558 89.1667 237.141 89.4417 236.808 89.775C236.491 90.0917 236.333 90.4833 236.333 90.95C236.333 91.55 236.624 92.0417 237.208 92.425C237.808 92.825 238.708 93.025 239.908 93.025C241.058 93.025 241.966 92.8083 242.633 92.375C243.299 91.9583 243.633 91.4083 243.633 90.725ZM245.433 78.85V79.45C245.433 79.7 245.291 79.85 245.008 79.9L243.383 80C243.799 80.5167 244.008 81.1583 244.008 81.925C244.008 82.4917 243.899 83.0083 243.683 83.475C243.483 83.9417 243.191 84.3417 242.808 84.675C242.424 84.9917 241.966 85.2417 241.433 85.425C240.916 85.5917 240.349 85.675 239.733 85.675C239.166 85.675 238.633 85.5833 238.133 85.4C237.849 85.55 237.624 85.7333 237.458 85.95C237.308 86.1667 237.233 86.3833 237.233 86.6C237.233 87 237.433 87.275 237.833 87.425C238.233 87.575 238.724 87.675 239.308 87.725C239.908 87.775 240.549 87.8083 241.233 87.825C241.933 87.8417 242.574 87.925 243.158 88.075C243.758 88.225 244.258 88.4833 244.658 88.85C245.058 89.2 245.258 89.725 245.258 90.425C245.258 90.925 245.133 91.4 244.883 91.85C244.633 92.3167 244.274 92.725 243.808 93.075C243.358 93.425 242.799 93.7083 242.133 93.925C241.466 94.1417 240.708 94.25 239.858 94.25C239.008 94.25 238.266 94.1667 237.633 94C237.016 93.8333 236.499 93.6083 236.083 93.325C235.666 93.0417 235.349 92.7083 235.133 92.325C234.933 91.9583 234.833 91.5667 234.833 91.15C234.833 90.5667 235.016 90.0667 235.383 89.65C235.766 89.2333 236.299 88.9 236.983 88.65C236.599 88.5167 236.299 88.325 236.083 88.075C235.866 87.8083 235.758 87.4583 235.758 87.025C235.758 86.7083 235.874 86.3667 236.108 86C236.358 85.6167 236.724 85.3 237.208 85.05C236.641 84.7333 236.199 84.3167 235.883 83.8C235.583 83.2667 235.433 82.6417 235.433 81.925C235.433 80.7917 235.824 79.8917 236.608 79.225C237.408 78.5417 238.449 78.2 239.733 78.2C240.733 78.2 241.591 78.4167 242.308 78.85H245.433ZM255.597 82.975C255.597 81.9083 255.305 81.05 254.722 80.4C254.155 79.75 253.388 79.425 252.422 79.425C251.338 79.425 250.497 79.7417 249.897 80.375C249.297 81.0083 248.93 81.875 248.797 82.975H255.597ZM248.747 84.1C248.73 84.7333 248.797 85.3417 248.947 85.925C249.097 86.4917 249.33 86.9917 249.647 87.425C249.963 87.8583 250.363 88.2083 250.847 88.475C251.347 88.725 251.93 88.85 252.597 88.85C253.147 88.85 253.613 88.7917 253.997 88.675C254.397 88.5417 254.73 88.4083 254.997 88.275C255.28 88.125 255.505 87.9917 255.672 87.875C255.855 87.7417 255.997 87.675 256.097 87.675C256.247 87.675 256.372 87.7333 256.472 87.85L256.922 88.425C256.472 88.9917 255.83 89.425 254.997 89.725C254.18 90.0083 253.338 90.15 252.472 90.15C251.672 90.15 250.93 90.0167 250.247 89.75C249.58 89.4833 249.005 89.0917 248.522 88.575C248.055 88.0417 247.688 87.3917 247.422 86.625C247.155 85.8417 247.022 84.95 247.022 83.95C247.022 83.1333 247.138 82.375 247.372 81.675C247.622 80.975 247.972 80.3667 248.422 79.85C248.888 79.3333 249.455 78.9333 250.122 78.65C250.788 78.35 251.538 78.2 252.372 78.2C253.055 78.2 253.688 78.3167 254.272 78.55C254.855 78.7833 255.355 79.125 255.772 79.575C256.205 80.0083 256.538 80.55 256.772 81.2C257.022 81.85 257.147 82.5917 257.147 83.425C257.147 83.6917 257.113 83.875 257.047 83.975C256.997 84.0583 256.888 84.1 256.722 84.1H248.747ZM275.713 86.925C275.83 86.8917 275.905 86.8833 275.938 86.9C275.988 86.9 276.047 86.9333 276.113 87L276.863 87.75C276.163 88.5333 275.338 89.1333 274.388 89.55C273.438 89.9667 272.288 90.175 270.938 90.175C269.772 90.175 268.705 89.9833 267.738 89.6C266.788 89.2167 265.963 88.675 265.263 87.975C264.58 87.2583 264.047 86.3917 263.663 85.375C263.297 84.3583 263.113 83.2167 263.113 81.95C263.113 80.7333 263.305 79.6083 263.688 78.575C264.072 77.5417 264.613 76.65 265.313 75.9C266.013 75.15 266.855 74.5667 267.838 74.15C268.822 73.7333 269.922 73.525 271.138 73.525C272.272 73.525 273.28 73.7 274.163 74.05C275.047 74.4 275.847 74.9083 276.563 75.575C276.263 76.025 276.047 76.3167 275.913 76.45C275.797 76.5667 275.68 76.625 275.563 76.625C275.48 76.625 275.355 76.575 275.188 76.475C274.805 76.2083 274.447 75.9833 274.113 75.8C273.797 75.6167 273.48 75.475 273.163 75.375C272.847 75.2583 272.522 75.175 272.188 75.125C271.872 75.075 271.522 75.05 271.138 75.05C270.172 75.05 269.305 75.225 268.538 75.575C267.788 75.925 267.147 76.4083 266.613 77.025C266.097 77.6417 265.697 78.375 265.413 79.225C265.147 80.0583 265.013 80.9667 265.013 81.95C265.013 83.0167 265.163 83.9667 265.463 84.8C265.78 85.6333 266.205 86.3333 266.738 86.9C267.272 87.4667 267.905 87.9 268.638 88.2C269.372 88.5 270.163 88.65 271.013 88.65C271.797 88.65 272.472 88.575 273.038 88.425C273.605 88.275 274.155 88.0083 274.688 87.625C274.872 87.525 275.047 87.4167 275.213 87.3C275.38 87.1667 275.547 87.0417 275.713 86.925ZM283.941 78.2C284.791 78.2 285.55 78.3417 286.216 78.625C286.883 78.9083 287.45 79.3167 287.916 79.85C288.4 80.3667 288.766 80.9917 289.016 81.725C289.266 82.4583 289.391 83.2833 289.391 84.2C289.391 86.0333 288.908 87.4833 287.941 88.55C286.975 89.6167 285.641 90.15 283.941 90.15C282.241 90.15 280.908 89.6167 279.941 88.55C278.975 87.4833 278.491 86.0333 278.491 84.2C278.491 83.2833 278.616 82.4583 278.866 81.725C279.116 80.9917 279.475 80.3667 279.941 79.85C280.425 79.3167 281 78.9083 281.666 78.625C282.333 78.3417 283.091 78.2 283.941 78.2ZM283.941 88.85C285.191 88.85 286.116 88.4417 286.716 87.625C287.333 86.7917 287.641 85.65 287.641 84.2C287.641 82.7333 287.333 81.5917 286.716 80.775C286.116 79.9417 285.191 79.525 283.941 79.525C282.691 79.525 281.766 79.9417 281.166 80.775C280.566 81.5917 280.266 82.7333 280.266 84.2C280.266 85.65 280.566 86.7917 281.166 87.625C281.766 88.4417 282.691 88.85 283.941 88.85ZM292.13 90V78.4H293.105C293.389 78.4 293.555 78.525 293.605 78.775L293.73 80.2C294.164 79.6167 294.655 79.1417 295.205 78.775C295.755 78.3917 296.389 78.2 297.105 78.2C297.922 78.2 298.58 78.4417 299.08 78.925C299.58 79.3917 299.93 80.0333 300.13 80.85C300.414 79.9333 300.897 79.2667 301.58 78.85C302.28 78.4167 303.03 78.2 303.83 78.2C305.03 78.2 305.964 78.5833 306.63 79.35C307.297 80.1167 307.63 81.2083 307.63 82.625V90H305.905V82.625C305.905 80.5583 305.072 79.525 303.405 79.525C303.055 79.525 302.714 79.5917 302.38 79.725C302.064 79.8417 301.78 80.0333 301.53 80.3C301.28 80.55 301.08 80.875 300.93 81.275C300.797 81.6583 300.73 82.1083 300.73 82.625V90H299.005V82.625C299.005 80.5583 298.222 79.525 296.655 79.525C296.089 79.525 295.572 79.6917 295.105 80.025C294.639 80.3417 294.222 80.7833 293.855 81.35V90H292.13ZM312.703 87.325C313.103 87.8917 313.536 88.2917 314.003 88.525C314.47 88.7583 315.011 88.875 315.628 88.875C316.811 88.875 317.711 88.45 318.328 87.6C318.945 86.75 319.253 85.5917 319.253 84.125C319.253 82.5083 318.978 81.3417 318.428 80.625C317.878 79.8917 317.086 79.525 316.053 79.525C315.353 79.525 314.728 79.7 314.178 80.05C313.628 80.4 313.136 80.8833 312.703 81.5V87.325ZM312.603 80.35C313.086 79.6833 313.661 79.1583 314.328 78.775C314.995 78.3917 315.745 78.2 316.578 78.2C317.961 78.2 319.045 78.7 319.828 79.7C320.628 80.6833 321.028 82.1583 321.028 84.125C321.028 84.975 320.911 85.7667 320.678 86.5C320.461 87.2333 320.136 87.875 319.703 88.425C319.27 88.9583 318.745 89.3833 318.128 89.7C317.511 90 316.803 90.15 316.003 90.15C315.253 90.15 314.611 90.025 314.078 89.775C313.561 89.5083 313.103 89.125 312.703 88.625V94H310.978V78.4H311.953C312.236 78.4 312.403 78.525 312.453 78.775L312.603 80.35ZM330.194 84.6C328.211 84.6833 326.777 84.9417 325.894 85.375C325.027 85.7917 324.594 86.3583 324.594 87.075C324.594 87.775 324.794 88.2833 325.194 88.6C325.611 88.9 326.102 89.05 326.669 89.05C327.469 89.05 328.136 88.8917 328.669 88.575C329.202 88.2417 329.711 87.8167 330.194 87.3V84.6ZM323.519 80.025C324.152 79.425 324.827 78.975 325.544 78.675C326.261 78.3583 327.061 78.2 327.944 78.2C329.244 78.2 330.219 78.6 330.869 79.4C331.536 80.1833 331.869 81.225 331.869 82.525V90H331.144C330.961 90 330.819 89.975 330.719 89.925C330.636 89.875 330.569 89.7667 330.519 89.6L330.344 88.275C330.044 88.575 329.744 88.8417 329.444 89.075C329.144 89.3083 328.827 89.5083 328.494 89.675C328.177 89.8417 327.827 89.9667 327.444 90.05C327.061 90.1333 326.636 90.175 326.169 90.175C325.736 90.175 325.319 90.1167 324.919 90C324.536 89.8833 324.194 89.7 323.894 89.45C323.611 89.2 323.377 88.8917 323.194 88.525C323.027 88.1417 322.944 87.6833 322.944 87.15C322.944 86.6833 323.077 86.2417 323.344 85.825C323.611 85.3917 324.027 85.0167 324.594 84.7C325.177 84.3667 325.927 84.1 326.844 83.9C327.761 83.7 328.877 83.5833 330.194 83.55V82.525C330.194 81.5417 329.986 80.8 329.569 80.3C329.152 79.7833 328.544 79.525 327.744 79.525C327.227 79.525 326.786 79.6 326.419 79.75C326.069 79.8833 325.769 80.0333 325.519 80.2C325.269 80.3667 325.052 80.525 324.869 80.675C324.686 80.8083 324.519 80.875 324.369 80.875C324.119 80.875 323.936 80.7667 323.819 80.55L323.519 80.025ZM336.797 80.275C337.313 79.6417 337.897 79.1417 338.547 78.775C339.197 78.3917 339.947 78.2 340.797 78.2C342.097 78.2 343.063 78.6 343.697 79.4C344.347 80.2 344.672 81.275 344.672 82.625V90H342.972V82.625C342.972 81.6583 342.747 80.9 342.297 80.35C341.863 79.8 341.205 79.525 340.322 79.525C339.638 79.525 339.013 79.7 338.447 80.05C337.897 80.3833 337.388 80.8417 336.922 81.425V90H335.197V78.4H336.172C336.455 78.4 336.622 78.525 336.672 78.775L336.797 80.275ZM357.814 78.4L351.264 93.575C351.181 93.7083 351.097 93.8083 351.014 93.875C350.931 93.9583 350.789 94 350.589 94H349.339L351.439 89.425L346.614 78.4H348.064C348.247 78.4 348.381 78.4417 348.464 78.525C348.547 78.5917 348.606 78.6667 348.639 78.75L352.014 86.775C352.081 86.9417 352.131 87.0917 352.164 87.225C352.214 87.3583 352.256 87.5083 352.289 87.675C352.356 87.5083 352.406 87.3583 352.439 87.225C352.489 87.0917 352.547 86.9333 352.614 86.75L355.914 78.75C355.947 78.65 356.014 78.5667 356.114 78.5C356.231 78.4333 356.347 78.4 356.464 78.4H357.814Z" fill="white"/>
</svg>
